<?xml version="1.0" encoding="UTF-8"?>
<svg width="62px" height="47px" viewBox="0 0 62 47" version="1.1" xmlns="http://www.w3.org/2000/svg" xmlns:xlink="http://www.w3.org/1999/xlink">
    <g id="Page-1" stroke="none" stroke-width="1" fill="none" fill-rule="evenodd">
        <g id="Group-2" transform="translate(0.816000, 0.000000)">
            <circle id="Oval-Copy-12" fill="#50CEBB" cx="18.184" cy="15" r="15"></circle>
            <circle id="Oval-Copy-11" fill="#F6737A" cx="41.684" cy="15" r="15"></circle>
            <circle id="Oval-Copy-13" fill="#FFFFFF" cx="29.684" cy="15" r="10"></circle>
            <polygon id="Path" fill="#363636" fill-rule="nonzero" points="1.968 46 1.968 37.48 -5.68434189e-14 37.48 -5.68434189e-14 46"></polygon>
            <polygon id="Path" fill="#363636" fill-rule="nonzero" points="5.568 46 5.568 41.128 9.468 46 11.076 46 11.076 37.48 9.108 37.48 9.108 42.496 5.16 37.48 3.6 37.48 3.6 46"></polygon>
            <path d="M15.888,37.48 L16.1942963,37.487037 C16.9958765,37.5245679 17.6757778,37.7122222 18.234,38.05 C18.862,38.43 19.336,38.942 19.656,39.586 C19.976,40.23 20.136,40.944 20.136,41.728 C20.136,42.592 19.96,43.344 19.608,43.984 C19.256,44.624 18.762,45.12 18.126,45.472 C17.49,45.824 16.744,46 15.888,46 L15.888,46 L12.708,46 L12.708,37.48 L15.888,37.48 Z M15.888,39.208 L14.676,39.208 L14.676,44.272 L15.888,44.272 C16.368,44.272 16.774,44.162 17.106,43.942 C17.438,43.722 17.692,43.418 17.868,43.03 C18.044,42.642 18.132,42.208 18.132,41.728 C18.132,41.232 18.044,40.794 17.868,40.414 C17.692,40.034 17.436,39.738 17.1,39.526 C16.764,39.314 16.36,39.208 15.888,39.208 L15.888,39.208 Z" id="Combined-Shape" fill="#363636" fill-rule="nonzero"></path>
            <polygon id="Path" fill="#363636" fill-rule="nonzero" points="27.288 46 27.288 44.272 23.268 44.272 23.268 42.46 26.628 42.46 26.628 40.864 23.268 40.864 23.268 39.208 27.18 39.208 27.18 37.48 21.3 37.48 21.3 46"></polygon>
            <path d="M32.196,46.072 C32.668,46.072 33.146,45.994 33.63,45.838 C34.114,45.682 34.548,45.456 34.932,45.16 C35.316,44.864 35.592,44.508 35.76,44.092 L35.76,44.092 L34.152,43.144 C34.04,43.424 33.878,43.65 33.666,43.822 C33.454,43.994 33.224,44.12 32.976,44.2 C32.728,44.28 32.484,44.32 32.244,44.32 C31.908,44.32 31.6,44.25 31.32,44.11 C31.04,43.97 30.802,43.78 30.606,43.54 C30.41,43.3 30.26,43.024 30.156,42.712 C30.052,42.4 30,42.076 30,41.74 C30,41.436 30.044,41.132 30.132,40.828 C30.22,40.524 30.356,40.248 30.54,40 C30.724,39.752 30.956,39.554 31.236,39.406 C31.516,39.258 31.844,39.184 32.22,39.184 C32.452,39.184 32.694,39.218 32.946,39.286 C33.198,39.354 33.43,39.472 33.642,39.64 C33.854,39.808 34.024,40.044 34.152,40.348 L34.152,40.348 L35.664,39.292 C35.376,38.74 34.938,38.292 34.35,37.948 C33.762,37.604 33.068,37.432 32.268,37.432 C31.596,37.432 30.996,37.554 30.468,37.798 C29.94,38.042 29.492,38.368 29.124,38.776 C28.756,39.184 28.476,39.638 28.284,40.138 C28.092,40.638 27.996,41.148 27.996,41.668 C27.996,42.212 28.098,42.746 28.302,43.27 C28.506,43.794 28.794,44.266 29.166,44.686 C29.538,45.106 29.982,45.442 30.498,45.694 C31.014,45.946 31.58,46.072 32.196,46.072 Z" id="Path" fill="#363636" fill-rule="nonzero"></path>
            <polygon id="Path" fill="#363636" fill-rule="nonzero" points="38.712 46 38.712 37.48 36.744 37.48 36.744 46"></polygon>
            <path d="M43.38,46.096 C43.788,46.096 44.184,46.05 44.568,45.958 C44.952,45.866 45.294,45.718 45.594,45.514 C45.894,45.31 46.132,45.042 46.308,44.71 C46.484,44.378 46.572,43.972 46.572,43.492 C46.572,42.964 46.466,42.54 46.254,42.22 C46.042,41.9 45.736,41.638 45.336,41.434 C44.936,41.23 44.464,41.056 43.92,40.912 C43.536,40.8 43.212,40.702 42.948,40.618 C42.684,40.534 42.482,40.436 42.342,40.324 C42.202,40.212 42.132,40.06 42.132,39.868 C42.132,39.628 42.224,39.45 42.408,39.334 C42.592,39.218 42.852,39.16 43.188,39.16 C43.444,39.16 43.7,39.196 43.956,39.268 C44.212,39.34 44.448,39.424 44.664,39.52 C44.88,39.616 45.06,39.706 45.204,39.79 C45.348,39.874 45.432,39.936 45.456,39.976 L45.456,39.976 L46.32,38.344 C46.064,38.2 45.774,38.056 45.45,37.912 C45.126,37.768 44.778,37.648 44.406,37.552 C44.034,37.456 43.648,37.408 43.248,37.408 C42.68,37.408 42.156,37.514 41.676,37.726 C41.196,37.938 40.814,38.25 40.53,38.662 C40.246,39.074 40.104,39.58 40.104,40.18 C40.104,40.612 40.186,40.972 40.35,41.26 C40.514,41.548 40.766,41.792 41.106,41.992 C41.446,42.192 41.876,42.372 42.396,42.532 C42.796,42.652 43.15,42.76 43.458,42.856 C43.766,42.952 44.01,43.06 44.19,43.18 C44.37,43.3 44.46,43.468 44.46,43.684 C44.46,43.884 44.374,44.04 44.202,44.152 C44.03,44.264 43.768,44.32 43.416,44.32 C43.088,44.32 42.764,44.276 42.444,44.188 C42.124,44.1 41.834,43.998 41.574,43.882 C41.314,43.766 41.096,43.654 40.92,43.546 C40.744,43.438 40.64,43.364 40.608,43.324 L40.608,43.324 L39.744,45.04 C40.08,45.264 40.448,45.454 40.848,45.61 C41.248,45.766 41.666,45.886 42.102,45.97 C42.538,46.054 42.964,46.096 43.38,46.096 Z" id="Path" fill="#363636" fill-rule="nonzero"></path>
            <polygon id="Path" fill="#363636" fill-rule="nonzero" points="49.128 46 49.128 44.044 47.556 44.044 47.556 46"></polygon>
            <polygon id="Path" fill="#363636" fill-rule="nonzero" points="52.56 46 52.56 37.48 50.592 37.48 50.592 46"></polygon>
            <polygon id="Path" fill="#363636" fill-rule="nonzero" points="58.092 46 58.092 39.208 60.684 39.208 60.684 37.48 53.52 37.48 53.52 39.208 56.124 39.208 56.124 46"></polygon>
        </g>
    </g>
</svg>
