<?xml version="1.0" encoding="UTF-8"?>
<svg width="801px" height="598px" viewBox="0 0 801 598" version="1.1" xmlns="http://www.w3.org/2000/svg"
     xmlns:xlink="http://www.w3.org/1999/xlink">
  <g id="Page-1" stroke="none" stroke-width="1" fill="none" fill-rule="evenodd">
    <g id="Event-Photo" transform="translate(-563.000000, -164.000000)">
      <g id="Group-2" transform="translate(563.000000, 164.000000)">
        <circle id="Oval-Copy-29" fill="#50CEBB" cx="227.303571" cy="215" r="215"></circle>
        <circle id="Oval-Copy-30" fill="#F6737A" cx="566.696429" cy="215" r="215"></circle>
        <circle id="Oval-Copy-31" fill="#FFFFFF" cx="390.089286" cy="215" r="143.589286"></circle>
        <g id="Group" transform="translate(-0.000000, 483.000000)" fill="#363636" fill-rule="nonzero">
          <polygon id="Path-Copy-10" points="29.6666667 111.290323 29.6666667 0 0 0 0 111.290323"></polygon>
          <polygon id="Path-Copy-11"
                   points="77.297619 111.290323 77.297619 47.6510677 127.595238 111.290323 148.333333 111.290323 148.333333 0 122.952381 0 122.952381 65.5202181 72.0357143 0 51.9166667 0 51.9166667 111.290323"></polygon>
          <path d="M211.860258,0 L212.63304,0.00337052029 C224.440724,0.106733143 234.333619,2.58743608 242.311726,7.44547933 C250.46327,12.4091322 256.615868,19.0970014 260.769521,27.5090868 C264.923174,35.9211722 267,45.2476147 267,55.4884144 C267,66.7741935 264.715491,76.5970014 260.146473,84.9568378 C255.577455,93.3166742 249.165253,99.7955475 240.909868,104.393458 C232.654483,108.991368 222.97128,111.290323 211.860258,111.290323 L211.860258,111.290323 L170.583333,111.290323 L170.583333,0 L211.860258,0 Z M211.860258,22.5715584 L196.128298,22.5715584 L196.128298,88.7187642 L211.860258,88.7187642 C218.090738,88.7187642 223.360685,87.2819173 227.6701,84.4082235 C231.979514,81.5345298 235.276476,77.5636075 237.560985,72.4954566 C239.845495,67.4273058 240.987749,61.7582917 240.987749,55.4884144 C240.987749,49.0095411 239.845495,43.2882781 237.560985,38.3246252 C235.276476,33.3609723 231.953554,29.4945479 227.592219,26.7253521 C223.230883,23.9561563 217.986896,22.5715584 211.860258,22.5715584 L211.860258,22.5715584 Z"
                id="Combined-Shape-Copy-2"></path>
          <polygon id="Path-Copy-12"
                   points="359.708333 111.290323 359.708333 88.7187642 307.427522 88.7187642 307.427522 65.0499773 351.124916 65.0499773 351.124916 44.2026352 307.427522 44.2026352 307.427522 22.5715584 358.303774 22.5715584 358.303774 0 281.833333 0 281.833333 111.290323"></polygon>
          <path d="M424.99678,115 C431.08372,115 437.248036,113.961806 443.489728,111.885417 C449.731421,109.809028 455.32831,106.800926 460.280397,102.861111 C465.232483,98.9212963 468.791795,94.1828704 470.958333,88.6458333 L470.958333,88.6458333 L450.221471,76.0277778 C448.777112,79.7546296 446.687951,82.7627315 443.953986,85.0520833 C441.220022,87.3414352 438.253928,89.0185185 435.055706,90.0833333 C431.857483,91.1481481 428.710845,91.6805556 425.615791,91.6805556 C421.282715,91.6805556 417.310729,90.7488426 413.699833,88.8854167 C410.088936,87.0219907 407.019674,84.4930556 404.492047,81.2986111 C401.964419,78.1041667 400.03001,74.4305556 398.68882,70.2777778 C397.34763,66.125 396.677035,61.8125 396.677035,57.3402778 C396.677035,53.2939815 397.244462,49.2476852 398.379315,45.2013889 C399.514168,41.1550926 401.268032,37.4814815 403.640907,34.1805556 C406.013782,30.8796296 409.005667,28.244213 412.616564,26.2743056 C416.22746,24.3043981 420.457367,23.3194444 425.306285,23.3194444 C428.298171,23.3194444 431.419017,23.7719907 434.668824,24.6770833 C437.918631,25.5821759 440.910516,27.1527778 443.644481,29.3888889 C446.378445,31.625 448.570775,34.7662037 450.221471,38.8125 L450.221471,38.8125 L469.720312,24.7569444 C466.006247,17.4097222 460.357773,11.4467593 452.774891,6.86805556 C445.192008,2.28935185 436.242143,0 425.925296,0 C417.259145,0 409.52151,1.62384259 402.712391,4.87152778 C395.903272,8.11921296 390.125837,12.4583333 385.380088,17.8888889 C380.634338,23.3194444 377.023442,29.3622685 374.547398,36.0173611 C372.071355,42.6724537 370.833333,49.4606481 370.833333,56.3819444 C370.833333,63.6226852 372.148731,70.7303241 374.779527,77.7048611 C377.410323,84.6793981 381.124388,90.9618056 385.921722,96.5520833 C390.719056,102.142361 396.444906,106.614583 403.099272,109.96875 C409.753639,113.322917 417.052808,115 424.99678,115 Z"
                id="Path-Copy-13"></path>
          <polygon id="Path-Copy-14" points="511.75 111.290323 511.75 0 482.083333 0 482.083333 111.290323"></polygon>
          <path d="M570.268673,115 C575.586775,115 580.748462,114.391114 585.753735,113.173343 C590.759007,111.955571 595.216828,109.996547 599.127197,107.296271 C603.037566,104.595994 606.139792,101.048573 608.433875,96.6540055 C610.727958,92.2594383 611.875,86.8853591 611.875,80.531768 C611.875,73.5428177 610.493336,67.9304788 607.730009,63.6947514 C604.966681,59.4590239 600.978105,55.9910221 595.764279,53.2907459 C590.550454,50.5904696 584.39814,48.2872928 577.307337,46.3812155 C572.302065,44.8987109 568.078866,43.6015193 564.637742,42.4896409 C561.196617,41.3777624 558.563635,40.0805709 556.738796,38.5980663 C554.913957,37.1155617 554.001538,35.1035912 554.001538,32.5621547 C554.001538,29.3853591 555.200718,27.0292357 557.599077,25.4937845 C559.997437,23.9583333 563.386424,23.1906077 567.766037,23.1906077 C571.102885,23.1906077 574.439733,23.6671271 577.776582,24.6201657 C581.11343,25.5732044 584.189587,26.6850829 587.005053,27.9558011 C589.820518,29.2265193 592.16674,30.4178177 594.043717,31.5296961 C595.920694,32.6415746 597.015598,33.4622468 597.328427,33.9917127 L597.328427,33.9917127 L608.59029,12.3895028 C605.253442,10.4834254 601.473418,8.57734807 597.25022,6.67127072 C593.027021,4.76519337 588.490993,3.17679558 583.642135,1.90607735 C578.793278,0.635359116 573.761936,0 568.548111,0 C561.144479,0 554.314367,1.40308471 548.057777,4.20925414 C541.801186,7.01542357 536.821983,11.1452578 533.120167,16.5987569 C529.418351,22.052256 527.567443,28.75 527.567443,36.691989 C527.567443,42.410221 528.636277,47.1754144 530.773946,50.9875691 C532.911614,54.7997238 536.196324,58.0294659 540.628076,60.6767956 C545.059827,63.3241252 550.66469,65.7067219 557.442663,67.8245856 C562.656488,69.4129834 567.270723,70.8425414 571.285369,72.1132597 C575.300015,73.3839779 578.480448,74.8135359 580.82667,76.4019337 C583.172891,77.9903315 584.346002,80.2140884 584.346002,83.0732044 C584.346002,85.7205341 583.225029,87.7854512 580.983084,89.2679558 C578.741139,90.7504604 575.326084,91.4917127 570.737917,91.4917127 C566.462581,91.4917127 562.239382,90.9093002 558.068322,89.7444751 C553.897261,88.5796501 550.117238,87.229512 546.728251,85.6940608 C543.339265,84.1586096 540.49773,82.676105 538.203647,81.246547 C535.909564,79.816989 534.553969,78.837477 534.136863,78.308011 L534.136863,78.308011 L522.875,101.022099 C527.254613,103.987109 532.051333,106.502072 537.265158,108.566989 C542.478984,110.631906 547.927431,112.220304 553.610501,113.332182 C559.293571,114.444061 564.846295,115 570.268673,115 Z"
                id="Path-Copy-15"></path>
          <polygon id="Path-Copy-16"
                   points="645.25 111.290323 645.25 85.3225806 626.708333 85.3225806 626.708333 111.290323"></polygon>
          <polygon id="Path-Copy-17"
                   points="693.458333 111.290323 693.458333 0 663.791667 0 663.791667 111.290323"></polygon>
          <polygon id="Path-Copy-18"
                   points="766.115578 111.290323 766.115578 22.5715584 801 22.5715584 801 0 704.583333 0 704.583333 22.5715584 739.629257 22.5715584 739.629257 111.290323"></polygon>
        </g>
        <path d="M461.549159,198.156301 C463.685045,196.043138 467.138818,196.043138 469.070204,198.156301 L479.749634,208.858454 L490.633564,198.156301 C492.76945,196.043138 496.223223,196.043138 498.154609,198.156301 C500.472273,200.292187 500.472273,203.745961 498.154609,205.677347 L487.656957,216.356777 L498.154609,227.240707 C500.472273,229.376593 500.472273,232.830366 498.154609,234.761752 C496.223223,237.079416 492.76945,237.079416 490.633564,234.761752 L479.749634,224.2641 L469.070204,234.761752 C467.138818,237.079416 463.685045,237.079416 461.549159,234.761752 C459.435995,232.830366 459.435995,229.376593 461.549159,227.240707 L472.251311,216.356777 L461.549159,205.677347 C459.435995,203.745961 459.435995,200.292187 461.549159,198.156301 L461.549159,198.156301 Z"
              id="Path" fill="#F6737A" fill-rule="nonzero"></path>
        <path d="M310.658885,234.725517 C308.296009,237.091494 304.437369,237.091494 302.074493,234.725517 L288.200728,220.833544 C285.837853,218.467567 285.837853,214.603862 288.200728,212.237885 C290.563604,209.871908 294.422245,209.871908 296.78512,212.237885 L306.366689,221.832029 L329.822023,198.345911 C332.184898,195.979934 336.043539,195.979934 338.406415,198.345911 C340.76929,200.711888 340.76929,204.575593 338.406415,206.94157 L310.658885,234.725517 Z"
              id="Path" fill="#50CEBB" fill-rule="nonzero"></path>
        <path d="M384.196689,234.948528 C381.997358,237.147859 378.432942,237.122216 376.201737,234.89101 C373.970532,232.659805 373.944888,229.095389 376.144219,226.896058 L405.248146,197.792131 C407.447477,195.592801 411.011893,195.618444 413.243098,197.849649 C415.474303,200.080854 415.499947,203.64527 413.300616,205.844601 L384.196689,234.948528 Z"
              id="Path" fill="#EDD019" fill-rule="nonzero"></path>
      </g>
    </g>
  </g>
</svg>