<?xml version="1.0" encoding="UTF-8"?>
<svg width="270px" height="195px" viewBox="0 0 270 195" version="1.1" xmlns="http://www.w3.org/2000/svg" xmlns:xlink="http://www.w3.org/1999/xlink">
    <g id="Page-1" stroke="none" stroke-width="1" fill="none" fill-rule="evenodd">
        <g id="Mobile-Copy" transform="translate(-25.000000, -25.000000)">
            <g id="Group-2" transform="translate(25.000000, 25.000000)">
                <g id="Group" transform="translate(27.000000, 164.000000)" fill="#363636" fill-rule="nonzero">
                    <polygon id="Path-Copy" points="8 30 8 0 0 0 0 30"></polygon>
                    <polygon id="Path-Copy-2" points="20.8443018 30 20.8443018 12.8450704 34.4077047 30 40 30 40 0 33.1556982 0 33.1556982 17.6619718 19.4253612 0 14 0 14 30"></polygon>
                    <path d="M57.1308562,0 L57.6182512,0.00501760563 C60.6794817,0.0685739437 63.2542272,0.735915493 65.3424879,2.00704225 C67.540657,3.34507042 69.1997846,5.14788732 70.3198708,7.41549296 C71.4399569,9.68309859 72,12.1971831 72,14.9577465 C72,18 71.3839526,20.6478873 70.1518578,22.9014085 C68.9197631,25.1549296 67.19063,26.9014085 64.9644588,28.1408451 C62.7382876,29.3802817 60.1270867,30 57.1308562,30 L57.1308562,30 L46,30 L46,0 L57.1308562,0 Z M57.1308562,6.08450704 L52.8885299,6.08450704 L52.8885299,23.915493 L57.1308562,23.915493 C58.8109855,23.915493 60.2320948,23.528169 61.3941842,22.7535211 C62.5562736,21.9788732 63.4453419,20.9084507 64.0613893,19.5422535 C64.6774367,18.1760563 64.9854604,16.6478873 64.9854604,14.9577465 C64.9854604,13.2112676 64.6774367,11.6690141 64.0613893,10.3309859 C63.4453419,8.99295775 62.549273,7.95070423 61.3731826,7.20422535 C60.1970921,6.45774648 58.7829833,6.08450704 57.1308562,6.08450704 L57.1308562,6.08450704 Z" id="Combined-Shape-Copy"></path>
                    <polygon id="Path-Copy-3" points="97 30 97 23.915493 82.9018036 23.915493 82.9018036 17.5352113 94.6853707 17.5352113 94.6853707 11.915493 82.9018036 11.915493 82.9018036 6.08450704 96.6212425 6.08450704 96.6212425 0 76 0 76 30"></polygon>
                    <path d="M114.605873,31 C116.247295,31 117.909583,30.7201389 119.592736,30.1604167 C121.275889,29.6006944 122.785162,28.7898148 124.120556,27.7277778 C125.455951,26.6657407 126.415765,25.3884259 127,23.8958333 L127,23.8958333 L121.408037,20.4944444 C121.018547,21.4990741 120.455178,22.3099537 119.717929,22.9270833 C118.98068,23.544213 118.180835,23.9962963 117.318393,24.2833333 C116.455951,24.5703704 115.607419,24.7138889 114.772798,24.7138889 C113.604328,24.7138889 112.53323,24.4627315 111.559505,23.9604167 C110.585781,23.4581019 109.758114,22.7763889 109.076507,21.9152778 C108.3949,21.0541667 107.873261,20.0638889 107.511592,18.9444444 C107.149923,17.825 106.969088,16.6625 106.969088,15.4569444 C106.969088,14.3662037 107.122102,13.275463 107.42813,12.1847222 C107.734158,11.0939815 108.20711,10.1037037 108.846986,9.21388889 C109.486862,8.32407407 110.293663,7.61365741 111.267388,7.08263889 C112.241113,6.55162037 113.381762,6.28611111 114.689335,6.28611111 C115.496136,6.28611111 116.337713,6.40810185 117.214065,6.65208333 C118.090417,6.89606481 118.897218,7.31944444 119.634467,7.92222222 C120.371716,8.525 120.962906,9.37175926 121.408037,10.4625 L121.408037,10.4625 L126.666151,6.67361111 C125.664606,4.69305556 124.141422,3.08564815 122.0966,1.85138889 C120.051777,0.61712963 117.638331,0 114.85626,0 C112.51932,0 110.432767,0.437731481 108.5966,1.31319444 C106.760433,2.18865741 105.202473,3.35833333 103.92272,4.82222222 C102.642968,6.28611111 101.669243,7.9150463 101.001546,9.70902778 C100.333849,11.5030093 100,13.3328704 100,15.1986111 C100,17.150463 100.354714,19.0664352 101.064142,20.9465278 C101.77357,22.8266204 102.775116,24.5201389 104.068779,26.0270833 C105.362442,27.5340278 106.906491,28.7395833 108.700927,29.64375 C110.495363,30.5479167 112.463679,31 114.605873,31 Z" id="Path-Copy-4"></path>
                    <polygon id="Path-Copy-5" points="138 30 138 0 130 0 130 30"></polygon>
                    <path d="M153.780316,31 C155.214411,31 156.606327,30.8358656 157.956063,30.5075967 C159.3058,30.1793278 160.507909,29.6512431 161.56239,28.9233425 C162.616872,28.195442 163.453427,27.2391805 164.072056,26.054558 C164.690685,24.8699355 165,23.4212707 165,21.7085635 C165,19.8245856 164.627417,18.3116943 163.88225,17.1698895 C163.137083,16.0280847 162.061511,15.093232 160.655536,14.3653315 C159.249561,13.6374309 157.59051,13.0165746 155.678383,12.5027624 C154.328647,12.1031308 153.189807,11.753453 152.261863,11.4537293 C151.333919,11.1540055 150.623902,10.8043278 150.13181,10.4046961 C149.639719,10.0050645 149.393673,9.46270718 149.393673,8.77762431 C149.393673,7.92127072 149.717047,7.2861418 150.363796,6.87223757 C151.010545,6.45833333 151.924429,6.25138122 153.105448,6.25138122 C154.005272,6.25138122 154.905097,6.37983425 155.804921,6.63674033 C156.704745,6.89364641 157.534271,7.19337017 158.293497,7.5359116 C159.052724,7.87845304 159.685413,8.19958564 160.191564,8.49930939 C160.697715,8.79903315 160.99297,9.02025783 161.077329,9.16298343 L161.077329,9.16298343 L164.114236,3.33977901 C163.214411,2.82596685 162.195079,2.3121547 161.056239,1.79834254 C159.917399,1.28453039 158.6942,0.856353591 157.386643,0.513812155 C156.079086,0.171270718 154.72232,0 153.316344,0 C151.319859,0 149.478032,0.378222836 147.790861,1.13466851 C146.103691,1.89111418 144.760984,3.00437385 143.762742,4.47444751 C142.764499,5.94452118 142.265378,7.75 142.265378,9.89088398 C142.265378,11.4323204 142.553603,12.7168508 143.130053,13.7444751 C143.706503,14.7720994 144.592267,15.6427256 145.787346,16.3563536 C146.982425,17.0699816 148.493849,17.7122468 150.321617,18.2831492 C151.727592,18.711326 152.97188,19.0966851 154.054482,19.4392265 C155.137083,19.781768 155.994728,20.1671271 156.627417,20.5953039 C157.260105,21.0234807 157.57645,21.6229282 157.57645,22.3936464 C157.57645,23.1072744 157.274165,23.6639042 156.669596,24.0635359 C156.065026,24.4631676 155.144112,24.6629834 153.906854,24.6629834 C152.753954,24.6629834 151.615114,24.5059853 150.490334,24.191989 C149.365554,23.8779926 148.346221,23.5140424 147.432337,23.1001381 C146.518453,22.6862339 145.752197,22.2866022 145.133568,21.9012431 C144.514938,21.515884 144.149385,21.2518416 144.036907,21.109116 L144.036907,21.109116 L141,27.2320442 C142.181019,28.0313076 143.474517,28.7092541 144.880492,29.265884 C146.286467,29.8225138 147.755712,30.2506906 149.288225,30.5504144 C150.820738,30.8501381 152.318102,31 153.780316,31 Z" id="Path-Copy-6"></path>
                    <polygon id="Path-Copy-7" points="174 30 174 23 169 23 169 30"></polygon>
                    <polygon id="Path-Copy-8" points="187 30 187 0 179 0 179 30"></polygon>
                    <polygon id="Path-Copy-9" points="206.592965 30 206.592965 6.08450704 216 6.08450704 216 0 190 0 190 6.08450704 199.450586 6.08450704 199.450586 30"></polygon>
                </g>
                <g id="Group-Copy">
                    <circle id="Oval-Copy-32" fill="#50CEBB" cx="75.5" cy="75.5" r="75.5"></circle>
                    <circle id="Oval-Copy-33" fill="#F6737A" cx="194.5" cy="75.5" r="75.5"></circle>
                    <circle id="Oval-Copy-34" fill="#FFFFFF" cx="132.5" cy="75.5" r="50.5"></circle>
                    <path d="M156.555698,69.5556978 C157.304595,68.8147674 158.515578,68.8147674 159.192773,69.5556978 L162.93726,73.3081519 L166.75345,69.5556978 C167.502347,68.8147674 168.71333,68.8147674 169.390525,69.5556978 C170.203158,70.3045952 170.203158,71.5155783 169.390525,72.1927728 L165.709774,75.9372599 L169.390525,79.75345 C170.203158,80.5023474 170.203158,81.7133305 169.390525,82.390525 C168.71333,83.2031583 167.502347,83.2031583 166.75345,82.390525 L162.93726,78.7097738 L159.192773,82.390525 C158.515578,83.2031583 157.304595,83.2031583 156.555698,82.390525 C155.814767,81.7133305 155.814767,80.5023474 156.555698,79.75345 L160.308152,75.9372599 L156.555698,72.1927728 C155.814767,71.5155783 155.814767,70.3045952 156.555698,69.5556978 L156.555698,69.5556978 Z" id="Path" fill="#F6737A" fill-rule="nonzero"></path>
                    <path d="M103.565134,82.3778201 C102.729885,83.2073933 101.3659,83.2073933 100.530651,82.3778201 L95.6264368,77.5069312 C94.7911877,76.677358 94.7911877,75.322642 95.6264368,74.4930688 C96.4616858,73.6634955 97.8256705,73.6634955 98.6609195,74.4930688 L102.047893,77.8570264 L110.33908,69.6221799 C111.17433,68.7926067 112.538314,68.7926067 113.373563,69.6221799 C114.208812,70.4517532 114.208812,71.8064691 113.373563,72.6360424 L103.565134,82.3778201 Z" id="Path" fill="#50CEBB" fill-rule="nonzero"></path>
                    <g id="Group-3" transform="translate(131.000000, 66.000000)" fill="#EDD019" fill-rule="nonzero">
                        <path d="M0.473282443,1.76470588 C0.473282443,0.794117647 1.16030534,-3.80647894e-14 2,-3.80647894e-14 C2.83969466,-3.80647894e-14 3.52671756,0.790441176 3.52671756,1.76470588 L3.52671756,11.1764706 C3.52671756,12.1507353 2.84287532,12.9411765 2,12.9411765 C1.15712468,12.9411765 0.473282443,12.1544118 0.473282443,11.1764706 L0.473282443,1.76470588 Z" id="Path"></path>
                        <path d="M2,20 C0.8956743,20 1.48465593e-13,18.9647059 1.48465593e-13,17.6882353 C1.48465593e-13,16.4117647 0.895038168,15.3764706 2,15.3764706 C3.10496183,15.3764706 4,16.4117647 4,17.6882353 C3.99745547,18.9632353 3.10687023,20 2,20 Z" id="Path"></path>
                    </g>
                </g>
            </g>
        </g>
    </g>
</svg>