<?xml version="1.0" encoding="UTF-8"?>
<svg width="270px" height="195px" viewBox="0 0 270 195" version="1.1" xmlns="http://www.w3.org/2000/svg" xmlns:xlink="http://www.w3.org/1999/xlink">
    <g id="Page-1" stroke="none" stroke-width="1" fill="none" fill-rule="evenodd">
        <g id="Mobile-Copy" transform="translate(-24.000000, -25.000000)">
            <g id="Group" transform="translate(24.000000, 25.000000)">
                <circle id="Oval-Copy-26" fill="#50CEBB" cx="75.5" cy="75.5" r="75.5"></circle>
                <circle id="Oval-Copy-27" fill="#F6737A" cx="194.5" cy="75.5" r="75.5"></circle>
                <circle id="Oval-Copy-28" fill="#FFFFFF" cx="132.5" cy="75.5" r="50.5"></circle>
                <polygon id="Path-Copy" fill="#363636" fill-rule="nonzero" points="36 194 36 164 28 164 28 194"></polygon>
                <polygon id="Path-Copy-2" fill="#363636" fill-rule="nonzero" points="48.8443018 194 48.8443018 176.84507 62.4077047 194 68 194 68 164 61.1556982 164 61.1556982 181.661972 47.4253612 164 42 164 42 194"></polygon>
                <path d="M85.1308562,164 L85.6182512,164.005018 C88.6794817,164.068574 91.2542272,164.735915 93.3424879,166.007042 C95.540657,167.34507 97.1997846,169.147887 98.3198708,171.415493 C99.4399569,173.683099 100,176.197183 100,178.957746 C100,182 99.3839526,184.647887 98.1518578,186.901408 C96.9197631,189.15493 95.19063,190.901408 92.9644588,192.140845 C90.7382876,193.380282 88.1270867,194 85.1308562,194 L85.1308562,194 L74,194 L74,164 L85.1308562,164 Z M85.1308562,170.084507 L80.8885299,170.084507 L80.8885299,187.915493 L85.1308562,187.915493 C86.8109855,187.915493 88.2320948,187.528169 89.3941842,186.753521 C90.5562736,185.978873 91.4453419,184.908451 92.0613893,183.542254 C92.6774367,182.176056 92.9854604,180.647887 92.9854604,178.957746 C92.9854604,177.211268 92.6774367,175.669014 92.0613893,174.330986 C91.4453419,172.992958 90.549273,171.950704 89.3731826,171.204225 C88.1970921,170.457746 86.7829833,170.084507 85.1308562,170.084507 L85.1308562,170.084507 Z" id="Combined-Shape-Copy" fill="#363636" fill-rule="nonzero"></path>
                <polygon id="Path-Copy-3" fill="#363636" fill-rule="nonzero" points="125 194 125 187.915493 110.901804 187.915493 110.901804 181.535211 122.685371 181.535211 122.685371 175.915493 110.901804 175.915493 110.901804 170.084507 124.621242 170.084507 124.621242 164 104 164 104 194"></polygon>
                <path d="M142.605873,195 C144.247295,195 145.909583,194.720139 147.592736,194.160417 C149.275889,193.600694 150.785162,192.789815 152.120556,191.727778 C153.455951,190.665741 154.415765,189.388426 155,187.895833 L155,187.895833 L149.408037,184.494444 C149.018547,185.499074 148.455178,186.309954 147.717929,186.927083 C146.98068,187.544213 146.180835,187.996296 145.318393,188.283333 C144.455951,188.57037 143.607419,188.713889 142.772798,188.713889 C141.604328,188.713889 140.53323,188.462731 139.559505,187.960417 C138.585781,187.458102 137.758114,186.776389 137.076507,185.915278 C136.3949,185.054167 135.873261,184.063889 135.511592,182.944444 C135.149923,181.825 134.969088,180.6625 134.969088,179.456944 C134.969088,178.366204 135.122102,177.275463 135.42813,176.184722 C135.734158,175.093981 136.20711,174.103704 136.846986,173.213889 C137.486862,172.324074 138.293663,171.613657 139.267388,171.082639 C140.241113,170.55162 141.381762,170.286111 142.689335,170.286111 C143.496136,170.286111 144.337713,170.408102 145.214065,170.652083 C146.090417,170.896065 146.897218,171.319444 147.634467,171.922222 C148.371716,172.525 148.962906,173.371759 149.408037,174.4625 L149.408037,174.4625 L154.666151,170.673611 C153.664606,168.693056 152.141422,167.085648 150.0966,165.851389 C148.051777,164.61713 145.638331,164 142.85626,164 C140.51932,164 138.432767,164.437731 136.5966,165.313194 C134.760433,166.188657 133.202473,167.358333 131.92272,168.822222 C130.642968,170.286111 129.669243,171.915046 129.001546,173.709028 C128.333849,175.503009 128,177.33287 128,179.198611 C128,181.150463 128.354714,183.066435 129.064142,184.946528 C129.77357,186.82662 130.775116,188.520139 132.068779,190.027083 C133.362442,191.534028 134.906491,192.739583 136.700927,193.64375 C138.495363,194.547917 140.463679,195 142.605873,195 Z" id="Path-Copy-4" fill="#363636" fill-rule="nonzero"></path>
                <polygon id="Path-Copy-5" fill="#363636" fill-rule="nonzero" points="166 194 166 164 158 164 158 194"></polygon>
                <path d="M181.780316,195 C183.214411,195 184.606327,194.835866 185.956063,194.507597 C187.3058,194.179328 188.507909,193.651243 189.56239,192.923343 C190.616872,192.195442 191.453427,191.23918 192.072056,190.054558 C192.690685,188.869936 193,187.421271 193,185.708564 C193,183.824586 192.627417,182.311694 191.88225,181.16989 C191.137083,180.028085 190.061511,179.093232 188.655536,178.365331 C187.249561,177.637431 185.59051,177.016575 183.678383,176.502762 C182.328647,176.103131 181.189807,175.753453 180.261863,175.453729 C179.333919,175.154006 178.623902,174.804328 178.13181,174.404696 C177.639719,174.005064 177.393673,173.462707 177.393673,172.777624 C177.393673,171.921271 177.717047,171.286142 178.363796,170.872238 C179.010545,170.458333 179.924429,170.251381 181.105448,170.251381 C182.005272,170.251381 182.905097,170.379834 183.804921,170.63674 C184.704745,170.893646 185.534271,171.19337 186.293497,171.535912 C187.052724,171.878453 187.685413,172.199586 188.191564,172.499309 C188.697715,172.799033 188.99297,173.020258 189.077329,173.162983 L189.077329,173.162983 L192.114236,167.339779 C191.214411,166.825967 190.195079,166.312155 189.056239,165.798343 C187.917399,165.28453 186.6942,164.856354 185.386643,164.513812 C184.079086,164.171271 182.72232,164 181.316344,164 C179.319859,164 177.478032,164.378223 175.790861,165.134669 C174.103691,165.891114 172.760984,167.004374 171.762742,168.474448 C170.764499,169.944521 170.265378,171.75 170.265378,173.890884 C170.265378,175.43232 170.553603,176.716851 171.130053,177.744475 C171.706503,178.772099 172.592267,179.642726 173.787346,180.356354 C174.982425,181.069982 176.493849,181.712247 178.321617,182.283149 C179.727592,182.711326 180.97188,183.096685 182.054482,183.439227 C183.137083,183.781768 183.994728,184.167127 184.627417,184.595304 C185.260105,185.023481 185.57645,185.622928 185.57645,186.393646 C185.57645,187.107274 185.274165,187.663904 184.669596,188.063536 C184.065026,188.463168 183.144112,188.662983 181.906854,188.662983 C180.753954,188.662983 179.615114,188.505985 178.490334,188.191989 C177.365554,187.877993 176.346221,187.514042 175.432337,187.100138 C174.518453,186.686234 173.752197,186.286602 173.133568,185.901243 C172.514938,185.515884 172.149385,185.251842 172.036907,185.109116 L172.036907,185.109116 L169,191.232044 C170.181019,192.031308 171.474517,192.709254 172.880492,193.265884 C174.286467,193.822514 175.755712,194.250691 177.288225,194.550414 C178.820738,194.850138 180.318102,195 181.780316,195 Z" id="Path-Copy-6" fill="#363636" fill-rule="nonzero"></path>
                <polygon id="Path-Copy-7" fill="#363636" fill-rule="nonzero" points="202 194 202 187 197 187 197 194"></polygon>
                <polygon id="Path-Copy-8" fill="#363636" fill-rule="nonzero" points="215 194 215 164 207 164 207 194"></polygon>
                <polygon id="Path-Copy-9" fill="#363636" fill-rule="nonzero" points="234.592965 194 234.592965 170.084507 244 170.084507 244 164 218 164 218 170.084507 227.450586 170.084507 227.450586 194"></polygon>
            </g>
        </g>
    </g>
</svg>