<svg xmlns:xlink="http://www.w3.org/1999/xlink" width="197" height="70" viewBox="0 0 197 70"
     xmlns="http://www.w3.org/2000/svg" class="w-40">
  <g fill="none" fill-rule="evenodd">
    <path fill="#000" fill-rule="nonzero" d="M68 0v70H0V17.69l11.333-.755V58.71h45.334V0z"></path>
    <path fill="#009FC4" d="M68 0 23.87 40 0 17.13l10.583-4.35L23.87 26.212 52.4 0z" class="baffo"></path>
    <path d="M87.76 33.335V24.76h.07a5.863 5.863 0 0 0 2.328 2.012c.945.456 1.977.683 3.097.683 1.33 0 2.49-.257 3.483-.77a7.37 7.37 0 0 0 2.484-2.065 8.91 8.91 0 0 0 1.488-2.975c.327-1.12.49-2.287.49-3.5 0-1.283-.163-2.514-.49-3.692-.327-1.179-.828-2.211-1.505-3.098A7.587 7.587 0 0 0 96.65 9.22c-1.027-.537-2.252-.805-3.675-.805-1.12 0-2.147.222-3.08.665-.933.443-1.703 1.155-2.31 2.135h-.07v-2.31H82.79v24.43h4.97zm4.165-9.59c-.793 0-1.47-.163-2.03-.49a3.932 3.932 0 0 1-1.347-1.277c-.339-.526-.584-1.138-.736-1.838-.151-.7-.227-1.412-.227-2.135 0-.747.07-1.47.21-2.17.14-.7.38-1.318.718-1.855a4.086 4.086 0 0 1 1.33-1.313c.548-.338 1.23-.507 2.047-.507.793 0 1.464.17 2.013.508.548.338.997.781 1.347 1.33.35.548.6 1.172.752 1.872.152.7.228 1.412.228 2.135 0 .723-.07 1.435-.21 2.135-.14.7-.38 1.313-.718 1.837-.338.526-.781.951-1.33 1.278-.548.327-1.23.49-2.047.49zm16.94 3.71c1.12 0 2.217-.163 3.29-.49a6.476 6.476 0 0 0 2.8-1.715c.023.303.064.6.123.892.058.292.134.578.227.858h5.04c-.233-.373-.397-.933-.49-1.68a18.909 18.909 0 0 1-.14-2.345V13.56c0-1.097-.245-1.978-.735-2.643a5.034 5.034 0 0 0-1.89-1.557 8.458 8.458 0 0 0-2.555-.752 20.28 20.28 0 0 0-2.765-.193c-1.003 0-2 .1-2.992.298a8.541 8.541 0 0 0-2.678.997 5.958 5.958 0 0 0-1.96 1.855c-.513.77-.805 1.738-.875 2.905h4.97c.093-.98.42-1.68.98-2.1.56-.42 1.33-.63 2.31-.63.443 0 .857.03 1.242.088.386.058.724.175 1.016.35.291.174.525.42.7.734.174.315.262.741.262 1.278.023.513-.128.904-.455 1.173-.327.268-.77.472-1.33.612s-1.202.245-1.925.315c-.723.07-1.458.163-2.205.28-.747.117-1.487.274-2.222.473a6.273 6.273 0 0 0-1.96.892 4.536 4.536 0 0 0-1.4 1.593c-.362.665-.543 1.51-.543 2.537 0 .933.157 1.738.472 2.415a4.562 4.562 0 0 0 1.313 1.68 5.53 5.53 0 0 0 1.96.98c.747.21 1.552.315 2.415.315zm1.855-3.29c-.397 0-.782-.035-1.155-.105-.373-.07-.7-.192-.98-.367a1.878 1.878 0 0 1-.665-.718c-.163-.303-.245-.677-.245-1.12 0-.467.082-.852.245-1.155.163-.303.38-.554.647-.752a3.26 3.26 0 0 1 .946-.473c.361-.117.729-.21 1.102-.28.397-.07.793-.128 1.19-.175.397-.047.776-.105 1.137-.175.362-.07.7-.157 1.016-.262a2.23 2.23 0 0 0 .787-.438V20c0 .28-.03.653-.088 1.12a3.75 3.75 0 0 1-.472 1.383c-.257.454-.653.845-1.19 1.172-.537.327-1.295.49-2.275.49zm20.16 9.66c2.077 0 3.733-.28 4.97-.84 1.237-.56 2.182-1.242 2.835-2.047.653-.805 1.08-1.675 1.278-2.608.198-.933.297-1.762.297-2.485V8.905h-4.725v2.415h-.07c-.607-1.05-1.36-1.797-2.257-2.24-.899-.443-1.943-.665-3.133-.665-1.26 0-2.374.245-3.342.735a7.189 7.189 0 0 0-2.433 1.977 8.828 8.828 0 0 0-1.487 2.87 11.28 11.28 0 0 0-.508 3.378c0 1.237.146 2.41.438 3.517.291 1.109.752 2.077 1.382 2.905a6.641 6.641 0 0 0 2.415 1.96c.98.479 2.147.718 3.5.718 1.097 0 2.14-.228 3.133-.683a4.92 4.92 0 0 0 2.292-2.117h.07v2.38c.023 1.283-.286 2.345-.928 3.185-.641.84-1.662 1.26-3.062 1.26-.887 0-1.668-.18-2.345-.543-.677-.361-1.132-1.009-1.365-1.942H122.9c.07 1.027.356 1.907.857 2.642a6.193 6.193 0 0 0 1.89 1.803c.759.467 1.599.81 2.52 1.032.922.222 1.826.333 2.713.333zm.42-11.095c-.77 0-1.412-.163-1.925-.49a3.884 3.884 0 0 1-1.243-1.26 5.25 5.25 0 0 1-.665-1.733 9.88 9.88 0 0 1-.192-1.942c0-.677.076-1.324.227-1.942a4.796 4.796 0 0 1 .736-1.646 3.79 3.79 0 0 1 1.26-1.137c.501-.28 1.102-.42 1.802-.42.817 0 1.493.152 2.03.455.537.303.968.712 1.295 1.225a5.29 5.29 0 0 1 .7 1.768c.14.665.21 1.37.21 2.117 0 .653-.088 1.277-.262 1.872a4.96 4.96 0 0 1-.788 1.593 3.88 3.88 0 0 1-1.33 1.12c-.537.28-1.155.42-1.855.42zm20.615 4.725c2.053 0 3.803-.467 5.25-1.4 1.447-.933 2.52-2.485 3.22-4.655h-4.375c-.163.56-.607 1.09-1.33 1.593-.723.501-1.587.752-2.59.752-1.4 0-2.473-.362-3.22-1.085-.747-.723-1.155-1.89-1.225-3.5H160.7c.093-1.4-.023-2.742-.35-4.025-.327-1.283-.857-2.427-1.593-3.43a8.033 8.033 0 0 0-2.817-2.398c-1.143-.595-2.485-.892-4.025-.892-1.377 0-2.63.245-3.762.735a8.896 8.896 0 0 0-2.923 2.012 8.87 8.87 0 0 0-1.89 3.028c-.443 1.167-.665 2.427-.665 3.78 0 1.4.216 2.683.647 3.85.432 1.167 1.045 2.17 1.838 3.01.793.84 1.762 1.488 2.905 1.943 1.143.454 2.427.682 3.85.682zm3.815-11.445h-8.085c.023-.35.1-.747.227-1.19.129-.443.35-.863.665-1.26.315-.397.736-.73 1.26-.998.525-.268 1.185-.402 1.978-.402 1.213 0 2.118.327 2.713.98.595.653 1.009 1.61 1.242 2.87zM168.05 27V2.01h-4.97V27h4.97zm8.33 0V2.01h-4.97V27h4.97zm8.61.455c1.12 0 2.217-.163 3.29-.49a6.476 6.476 0 0 0 2.8-1.715 7.132 7.132 0 0 0 .35 1.75h5.04c-.233-.373-.397-.933-.49-1.68a18.909 18.909 0 0 1-.14-2.345V13.56c0-1.097-.245-1.978-.735-2.643a5.034 5.034 0 0 0-1.89-1.557 8.458 8.458 0 0 0-2.555-.752 20.28 20.28 0 0 0-2.765-.193c-1.003 0-2 .1-2.993.298a8.541 8.541 0 0 0-2.677.997 5.958 5.958 0 0 0-1.96 1.855c-.513.77-.805 1.738-.875 2.905h4.97c.093-.98.42-1.68.98-2.1.56-.42 1.33-.63 2.31-.63.443 0 .857.03 1.243.088.385.058.723.175 1.014.35.292.174.525.42.7.734.175.315.263.741.263 1.278.023.513-.128.904-.455 1.173-.327.268-.77.472-1.33.612s-1.202.245-1.925.315c-.723.07-1.458.163-2.205.28-.747.117-1.488.274-2.223.473a6.273 6.273 0 0 0-1.96.892 4.536 4.536 0 0 0-1.4 1.593c-.361.665-.542 1.51-.542 2.537 0 .933.157 1.738.472 2.415a4.562 4.562 0 0 0 1.313 1.68 5.53 5.53 0 0 0 1.96.98c.747.21 1.552.315 2.415.315zm1.855-3.29c-.397 0-.782-.035-1.155-.105-.373-.07-.7-.192-.98-.367a1.878 1.878 0 0 1-.665-.718c-.163-.303-.245-.677-.245-1.12 0-.467.082-.852.245-1.155.163-.303.38-.554.648-.752a3.26 3.26 0 0 1 .944-.473c.362-.117.73-.21 1.103-.28.397-.07.793-.128 1.19-.175.397-.047.776-.105 1.137-.175.362-.07.7-.157 1.016-.262a2.23 2.23 0 0 0 .787-.438V20c0 .28-.03.653-.088 1.12a3.75 3.75 0 0 1-.472 1.383c-.257.454-.653.845-1.19 1.172-.537.327-1.295.49-2.275.49zM87.48 68.335V59.76h.07a5.863 5.863 0 0 0 2.328 2.013c.945.454 1.977.682 3.097.682 1.33 0 2.49-.257 3.483-.77a7.37 7.37 0 0 0 2.484-2.065 8.91 8.91 0 0 0 1.488-2.975c.327-1.12.49-2.287.49-3.5 0-1.283-.163-2.514-.49-3.693-.327-1.178-.828-2.21-1.505-3.097a7.587 7.587 0 0 0-2.555-2.135c-1.027-.537-2.252-.805-3.675-.805-1.12 0-2.147.222-3.08.665-.933.443-1.703 1.155-2.31 2.135h-.07v-2.31H82.51v24.43h4.97zm4.165-9.59c-.793 0-1.47-.163-2.03-.49a3.932 3.932 0 0 1-1.347-1.278c-.339-.524-.584-1.137-.736-1.837-.151-.7-.227-1.412-.227-2.135 0-.747.07-1.47.21-2.17.14-.7.38-1.318.718-1.855a4.086 4.086 0 0 1 1.33-1.313c.548-.338 1.23-.507 2.047-.507.793 0 1.464.17 2.013.508.548.338.997.781 1.347 1.33.35.548.6 1.172.752 1.872.152.7.228 1.412.228 2.135 0 .723-.07 1.435-.21 2.135-.14.7-.38 1.313-.718 1.837-.338.526-.781.951-1.33 1.278-.548.327-1.23.49-2.047.49zm20.335 3.71c1.423 0 2.712-.222 3.867-.665 1.156-.443 2.141-1.08 2.958-1.907.817-.829 1.447-1.826 1.89-2.993.443-1.167.665-2.473.665-3.92s-.222-2.76-.665-3.938c-.443-1.178-1.073-2.181-1.89-3.01-.817-.828-1.803-1.47-2.958-1.925-1.154-.455-2.444-.682-3.867-.682s-2.707.227-3.85.682a8.47 8.47 0 0 0-2.94 1.925c-.817.829-1.447 1.832-1.89 3.01-.443 1.179-.665 2.491-.665 3.938s.222 2.753.665 3.92c.443 1.167 1.073 2.164 1.89 2.992a8.268 8.268 0 0 0 2.94 1.908c1.143.443 2.427.665 3.85.665zm0-3.71c-.84 0-1.54-.163-2.1-.49a3.822 3.822 0 0 1-1.347-1.313 5.641 5.641 0 0 1-.718-1.855 10.86 10.86 0 0 1 0-4.252c.14-.7.38-1.318.718-1.855a4.03 4.03 0 0 1 1.347-1.313c.56-.338 1.26-.507 2.1-.507.84 0 1.546.17 2.117.508a3.98 3.98 0 0 1 1.366 1.312c.338.537.577 1.155.717 1.855a10.86 10.86 0 0 1 0 4.252 5.641 5.641 0 0 1-.718 1.855 3.778 3.778 0 0 1-1.365 1.313c-.571.327-1.277.49-2.117.49zM128.99 62V37.01h-4.97V62h4.97zm8.33-20.895V37.01h-4.97v4.095h4.97zm0 20.895V43.905h-4.97V62h4.97zm10.255.175c.49 0 .992-.012 1.505-.035.513-.023.98-.07 1.4-.14v-3.85a6.963 6.963 0 0 1-.735.105 8.898 8.898 0 0 1-.805.035c-.84 0-1.4-.14-1.68-.42-.28-.28-.42-.84-.42-1.68v-8.96h3.64v-3.325h-3.64V38.48h-4.97v5.425h-3.01v3.325h3.01v10.675c0 .91.152 1.645.455 2.205.303.56.718.992 1.243 1.295.524.303 1.131.508 1.82.612.688.105 1.417.158 2.187.158zm9.695-21.07V37.01h-4.97v4.095h4.97zm0 20.895V43.905h-4.97V62h4.97zm11.795.455c2.403 0 4.375-.63 5.915-1.89 1.54-1.26 2.473-3.092 2.8-5.495h-4.795c-.163 1.12-.566 2.013-1.208 2.678-.641.665-1.557.997-2.747.997-.77 0-1.423-.175-1.96-.525-.537-.35-.963-.8-1.278-1.347a6.172 6.172 0 0 1-.682-1.838 9.83 9.83 0 0 1 0-4.042c.14-.689.38-1.319.717-1.89a4.311 4.311 0 0 1 1.313-1.4c.537-.362 1.202-.543 1.995-.543 2.123 0 3.348 1.038 3.675 3.115h4.865c-.07-1.167-.35-2.176-.84-3.027a6.838 6.838 0 0 0-1.907-2.136 8.267 8.267 0 0 0-2.66-1.277c-.992-.28-2.025-.42-3.098-.42-1.47 0-2.777.245-3.92.735a8.25 8.25 0 0 0-2.905 2.047c-.793.875-1.394 1.914-1.803 3.115-.408 1.202-.612 2.503-.612 3.903 0 1.353.222 2.596.665 3.727.443 1.132 1.062 2.106 1.855 2.923.793.817 1.756 1.453 2.888 1.907 1.131.456 2.374.683 3.727.683zm16.205 0c1.12 0 2.217-.163 3.29-.49a6.476 6.476 0 0 0 2.8-1.715 7.132 7.132 0 0 0 .35 1.75h5.04c-.233-.373-.397-.933-.49-1.68a18.909 18.909 0 0 1-.14-2.345V48.56c0-1.097-.245-1.977-.735-2.643a5.034 5.034 0 0 0-1.89-1.557 8.458 8.458 0 0 0-2.555-.752 20.28 20.28 0 0 0-2.765-.193c-1.003 0-2 .1-2.993.297a8.541 8.541 0 0 0-2.677.998 5.958 5.958 0 0 0-1.96 1.855c-.513.77-.805 1.738-.875 2.905h4.97c.093-.98.42-1.68.98-2.1.56-.42 1.33-.63 2.31-.63.443 0 .857.03 1.243.087.385.059.723.175 1.014.35.292.175.525.42.7.736.175.315.263.74.263 1.277.023.513-.128.904-.455 1.172-.327.269-.77.473-1.33.613s-1.202.245-1.925.315c-.723.07-1.458.163-2.205.28-.747.117-1.488.274-2.223.472a6.273 6.273 0 0 0-1.96.893 4.536 4.536 0 0 0-1.4 1.593c-.361.665-.542 1.51-.542 2.537 0 .933.157 1.738.472 2.415a4.562 4.562 0 0 0 1.313 1.68 5.53 5.53 0 0 0 1.96.98c.747.21 1.552.315 2.415.315zm1.855-3.29c-.397 0-.782-.035-1.155-.105-.373-.07-.7-.193-.98-.367a1.878 1.878 0 0 1-.665-.718c-.163-.303-.245-.677-.245-1.12 0-.467.082-.852.245-1.155.163-.303.38-.554.648-.753a3.26 3.26 0 0 1 .944-.472c.362-.117.73-.21 1.103-.28.397-.07.793-.128 1.19-.175.397-.047.776-.105 1.137-.175.362-.07.7-.157 1.016-.262a2.23 2.23 0 0 0 .787-.438V55c0 .28-.03.653-.088 1.12a3.75 3.75 0 0 1-.472 1.383c-.257.455-.653.845-1.19 1.172-.537.327-1.295.49-2.275.49z"
          fill="#000" fill-rule="nonzero"></path>
  </g>
</svg>