<?xml version="1.0" encoding="UTF-8"?>
<svg width="200px" height="200px" viewBox="0 0 200 200" version="1.1" xmlns="http://www.w3.org/2000/svg" xmlns:xlink="http://www.w3.org/1999/xlink">
    <title>Group</title>
    <g id="Page-1" stroke="none" stroke-width="1" fill="none" fill-rule="evenodd">
        <g id="Artboard-Copy" transform="translate(-41.000000, -295.000000)" fill-rule="nonzero">
            <g id="Group" transform="translate(41.000000, 295.000000)">
                <path d="M200,100 C200,155.234375 155.234375,200 100,200 C44.765625,200 0,155.234375 0,100 C0,44.765625 44.765625,0 100,0 C155.234375,0 200,44.765625 200,100 Z" id="Path" fill="#50CEBB"></path>
                <path d="M95.234375,132.734375 C90.9765625,136.992188 84.0234375,136.992188 79.765625,132.734375 L54.765625,107.734375 C50.5078125,103.476562 50.5078125,96.5234375 54.765625,92.265625 C59.0234375,88.0078125 65.9765625,88.0078125 70.234375,92.265625 L87.5,109.53125 L129.765625,67.265625 C134.023438,63.0078125 140.976562,63.0078125 145.234375,67.265625 C149.492188,71.5234375 149.492188,78.4765625 145.234375,82.734375 L95.234375,132.734375 Z" id="Path" fill="#FFFFFF"></path>
            </g>
        </g>
    </g>
</svg>