<?xml version="1.0" encoding="UTF-8"?>
<svg width="200px" height="200px" viewBox="0 0 200 200" version="1.1" xmlns="http://www.w3.org/2000/svg" xmlns:xlink="http://www.w3.org/1999/xlink">
    <title>Group 2</title>
    <g id="Page-1" stroke="none" stroke-width="1" fill="none" fill-rule="evenodd">
        <g id="Artboard-Copy" transform="translate(-260.000000, -295.000000)" fill-rule="nonzero">
            <g id="Group-2" transform="translate(260.000000, 295.000000)">
                <path d="M200,100 C200,155.234375 155.234375,200 100,200 C44.765625,200 0,155.234375 0,100 C0,44.765625 44.765625,0 100,0 C155.234375,0 200,44.765625 200,100 Z" id="Path" fill="#F6737A"></path>
                <path d="M68.359375,68.359375 C72.03125,64.7265625 77.96875,64.7265625 81.2890625,68.359375 L99.6484375,86.7578125 L118.359375,68.359375 C122.03125,64.7265625 127.96875,64.7265625 131.289063,68.359375 C135.273438,72.03125 135.273438,77.96875 131.289063,81.2890625 L113.242188,99.6484375 L131.289063,118.359375 C135.273438,122.03125 135.273438,127.96875 131.289063,131.289063 C127.96875,135.273438 122.03125,135.273438 118.359375,131.289063 L99.6484375,113.242188 L81.2890625,131.289063 C77.96875,135.273438 72.03125,135.273438 68.359375,131.289063 C64.7265625,127.96875 64.7265625,122.03125 68.359375,118.359375 L86.7578125,99.6484375 L68.359375,81.2890625 C64.7265625,77.96875 64.7265625,72.03125 68.359375,68.359375 L68.359375,68.359375 Z" id="Path" fill="#FFFFFF"></path>
            </g>
        </g>
    </g>
</svg>